<svg width="88" height="22" viewBox="0 0 88 22" fill="none" xmlns="http://www.w3.org/2000/svg">
<path d="M8.82427 5.38479C10.6804 5.38479 12.5366 6.12136 14.157 7.53556C15.7775 8.94977 16.6613 11.6309 16.2194 14.8423H5.1709C5.6423 16.7279 7.23329 17.7296 9.26621 17.7296C9.88493 17.7296 10.4153 17.6707 10.8867 17.5823C11.3581 17.4645 11.7116 17.3466 11.9179 17.2582C12.1536 17.1699 12.5071 16.9636 13.008 16.6985L15.3355 18.9671C13.8329 20.5286 11.7411 21.2946 9.1189 21.2946C5.31821 21.2946 0.987203 18.7019 0.987203 13.3986C0.987203 8.00697 5.37714 5.38479 8.82427 5.38479ZM8.82427 8.97923C7.20382 8.97923 5.76015 9.98097 5.20036 11.8371H12.4187C12.0946 10.0399 10.4742 8.97923 8.82427 8.97923ZM29.7485 7.62395V0.1699H33.9617V21H29.7485V19.0555H29.5423C28.953 20.0867 27.362 21.2946 25.0934 21.2946C23.8854 21.2946 22.7364 21.0295 21.6168 20.4697C19.3777 19.3796 17.551 16.7574 17.551 13.3397C17.551 11.6309 17.934 10.1577 18.7295 8.92031C20.3499 6.41598 22.7069 5.38479 25.0934 5.38479C27.362 5.38479 28.953 6.59276 29.5423 7.62395H29.7485ZM22.8248 16.4333C23.6203 17.1699 24.5925 17.5529 25.7121 17.5529C26.8317 17.5529 27.804 17.1699 28.5995 16.4333C29.4244 15.6967 29.8369 14.6655 29.8369 13.3397C29.8369 12.0139 29.4244 10.9827 28.5995 10.2461C27.804 9.50956 26.8317 9.12655 25.7121 9.12655C24.5925 9.12655 23.6203 9.50956 22.8248 10.2461C22.0293 10.9827 21.6463 12.0139 21.6463 13.3397C21.6463 14.6655 22.0293 15.6967 22.8248 16.4333ZM42.5956 21.2946C41.0341 21.2946 39.7083 20.7348 38.5887 19.5858C37.4691 18.4367 36.9093 16.7279 36.9093 14.4888V5.67942H41.1225V14.1941C41.1225 16.5511 42.3894 17.6118 44.1571 17.6118C45.1294 17.6118 45.9249 17.2582 46.5436 16.5806C47.1623 15.8735 47.4864 15.2253 47.5159 14.6361V5.67942H51.729V21H47.5159V18.1127C47.3096 18.7608 46.7498 19.4679 45.866 20.2045C44.9821 20.9411 43.892 21.2946 42.5956 21.2946ZM62.0274 5.38479C65.0031 5.38479 67.1834 6.62222 68.627 9.06762L65.3861 10.5702C64.4139 9.59795 63.6184 9.12655 62.0863 9.12655C61.0551 9.12655 60.1123 9.50956 59.3168 10.2756C58.5213 11.0122 58.1383 12.0434 58.1383 13.3692C58.1383 14.6655 58.5213 15.6967 59.3168 16.4333C60.1123 17.1699 61.0551 17.5529 62.0863 17.5529C63.6184 17.5529 64.4433 17.1109 65.3861 16.1681L68.6565 17.6707C67.2128 20.0867 65.0031 21.2946 62.0274 21.2946C60.2596 21.2946 58.374 20.5875 56.7536 19.3796C55.1331 18.1127 54.043 15.9324 54.043 13.3692C54.043 8.03643 58.6097 5.38479 62.0274 5.38479ZM78.4008 21.2946C77.1634 21.2946 75.9554 21.0295 74.7474 20.4697C73.5395 19.9099 72.5083 19.026 71.6244 17.7886C70.77 16.5511 70.328 15.078 70.328 13.3986C70.2986 9.45064 72.9502 6.76954 75.6608 5.91512C78.3713 4.88392 81.2587 5.41425 83.7335 7.35879C86.1789 9.06762 87.2985 13.7522 85.6781 16.8752C84.2639 19.8804 81.023 21.2946 78.4008 21.2946ZM78.4008 9.12655C77.3401 9.12655 76.3973 9.50956 75.6018 10.2756C74.8064 11.0122 74.4233 12.0728 74.4233 13.3986C74.4233 14.6655 74.8064 15.6967 75.6018 16.4333C76.3973 17.1699 77.3401 17.5529 78.4008 17.5529C79.432 17.5529 80.3748 17.1699 81.1703 16.4333C81.9658 15.6967 82.3783 14.6655 82.3783 13.3986C82.3783 12.0728 81.9658 11.0122 81.1703 10.2756C80.3748 9.50956 79.432 9.12655 78.4008 9.12655Z" fill="white"/>
</svg>
