<svg width="160" height="24" viewBox="0 0 160 24" fill="none" xmlns="http://www.w3.org/2000/svg">
<path d="M21.947 9.17901C21.8842 8.99388 21.7685 8.83121 21.6142 8.71107C21.46 8.59094 21.2739 8.51861 21.079 8.50301L15.378 8.05001L12.911 2.58901C12.8325 2.41313 12.7047 2.26374 12.5431 2.15887C12.3815 2.05401 12.193 1.99815 12.0004 1.99805C11.8077 1.99794 11.6192 2.05359 11.4575 2.15828C11.2957 2.26296 11.1678 2.41221 11.089 2.58801L8.62203 8.05001L2.92103 8.50301C2.72948 8.51819 2.54636 8.58822 2.39358 8.70475C2.2408 8.82127 2.12482 8.97934 2.05952 9.16004C1.99422 9.34075 1.98236 9.53645 2.02537 9.72372C2.06838 9.91099 2.16443 10.0819 2.30203 10.216L6.51503 14.323L5.02503 20.775C4.97978 20.9703 4.99428 21.1747 5.06665 21.3617C5.13901 21.5486 5.26589 21.7095 5.43083 21.8235C5.59577 21.9374 5.79115 21.9991 5.99161 22.0007C6.19208 22.0022 6.38837 21.9434 6.55503 21.832L12 18.202L17.445 21.832C17.6154 21.9451 17.8162 22.0033 18.0207 21.9988C18.2251 21.9944 18.4232 21.9274 18.5884 21.8069C18.7536 21.6865 18.878 21.5183 18.9448 21.3251C19.0116 21.1318 19.0176 20.9228 18.962 20.726L17.133 14.326L21.669 10.244C21.966 9.97601 22.075 9.55801 21.947 9.17901Z" fill="#FFF500"/>
<path d="M55.947 9.17901C55.8842 8.99388 55.7685 8.83121 55.6142 8.71107C55.46 8.59094 55.2739 8.51861 55.079 8.50301L49.378 8.05001L46.911 2.58901C46.8325 2.41313 46.7047 2.26374 46.5431 2.15887C46.3815 2.05401 46.193 1.99815 46.0004 1.99805C45.8077 1.99794 45.6192 2.05359 45.4575 2.15828C45.2957 2.26296 45.1678 2.41221 45.089 2.58801L42.622 8.05001L36.921 8.50301C36.7295 8.51819 36.5464 8.58822 36.3936 8.70475C36.2408 8.82127 36.1248 8.97934 36.0595 9.16004C35.9942 9.34075 35.9824 9.53645 36.0254 9.72372C36.0684 9.91099 36.1644 10.0819 36.302 10.216L40.515 14.323L39.025 20.775C38.9798 20.9703 38.9943 21.1747 39.0666 21.3617C39.139 21.5486 39.2659 21.7095 39.4308 21.8235C39.5958 21.9374 39.7911 21.9991 39.9916 22.0007C40.1921 22.0022 40.3884 21.9434 40.555 21.832L46 18.202L51.445 21.832C51.6154 21.9451 51.8162 22.0033 52.0207 21.9988C52.2251 21.9944 52.4232 21.9274 52.5884 21.8069C52.7536 21.6865 52.878 21.5183 52.9448 21.3251C53.0116 21.1318 53.0176 20.9228 52.962 20.726L51.133 14.326L55.669 10.244C55.966 9.97601 56.075 9.55801 55.947 9.17901Z" fill="#FFF500"/>
<path d="M89.947 9.17901C89.8842 8.99388 89.7685 8.83121 89.6142 8.71107C89.46 8.59094 89.2739 8.51861 89.079 8.50301L83.378 8.05001L80.911 2.58901C80.8325 2.41313 80.7047 2.26374 80.5431 2.15887C80.3815 2.05401 80.193 1.99815 80.0004 1.99805C79.8077 1.99794 79.6192 2.05359 79.4575 2.15828C79.2957 2.26296 79.1678 2.41221 79.089 2.58801L76.622 8.05001L70.921 8.50301C70.7295 8.51819 70.5464 8.58822 70.3936 8.70475C70.2408 8.82127 70.1248 8.97934 70.0595 9.16004C69.9942 9.34075 69.9824 9.53645 70.0254 9.72372C70.0684 9.91099 70.1644 10.0819 70.302 10.216L74.515 14.323L73.025 20.775C72.9798 20.9703 72.9943 21.1747 73.0666 21.3617C73.139 21.5486 73.2659 21.7095 73.4308 21.8235C73.5958 21.9374 73.7911 21.9991 73.9916 22.0007C74.1921 22.0022 74.3884 21.9434 74.555 21.832L80 18.202L85.445 21.832C85.6154 21.9451 85.8162 22.0033 86.0207 21.9988C86.2251 21.9944 86.4232 21.9274 86.5884 21.8069C86.7536 21.6865 86.878 21.5183 86.9448 21.3251C87.0116 21.1318 87.0176 20.9228 86.962 20.726L85.133 14.326L89.669 10.244C89.966 9.97601 90.075 9.55801 89.947 9.17901Z" fill="#FFF500"/>
<path d="M125.937 8.61602C125.861 8.39389 125.722 8.1987 125.537 8.05456C125.352 7.91043 125.129 7.82364 124.895 7.80493L118.054 7.2614L115.093 0.709067C114.999 0.49803 114.846 0.318785 114.652 0.192965C114.458 0.0671445 114.232 0.000127038 114 1.8043e-07C113.769 -0.000126677 113.543 0.0666426 113.349 0.19225C113.155 0.317857 113.001 0.496934 112.907 0.707867L109.946 7.2614L103.105 7.80493C102.875 7.82313 102.656 7.90717 102.472 8.04697C102.289 8.18678 102.15 8.37644 102.071 8.59326C101.993 8.81008 101.979 9.04488 102.03 9.26958C102.082 9.49427 102.197 9.69934 102.362 9.86025L107.418 14.788L105.63 22.5294C105.576 22.7637 105.593 23.0089 105.68 23.2333C105.767 23.4576 105.919 23.6506 106.117 23.7873C106.315 23.9241 106.549 23.9981 106.79 24C107.031 24.0018 107.266 23.9313 107.466 23.7976L114 19.4422L120.534 23.7976C120.739 23.9333 120.98 24.0032 121.225 23.9978C121.47 23.9924 121.708 23.912 121.906 23.7675C122.104 23.623 122.254 23.4212 122.334 23.1894C122.414 22.9575 122.421 22.7067 122.355 22.4706L120.16 14.7916L125.603 9.89385C125.959 9.57229 126.09 9.07076 125.937 8.61602Z" fill="#FFF500"/>
<path d="M141.025 20.775C140.991 20.9217 140.99 21.0742 141.023 21.2212C141.056 21.3681 141.122 21.5057 141.216 21.6235C141.31 21.7414 141.429 21.8365 141.565 21.9017C141.701 21.9669 141.849 22.0005 142 22C142.198 22.0001 142.391 21.9416 142.555 21.832L148 18.202L153.445 21.832C153.615 21.9451 153.816 22.0033 154.021 21.9988C154.225 21.9944 154.423 21.9274 154.588 21.8069C154.754 21.6865 154.878 21.5183 154.945 21.3251C155.012 21.1318 155.018 20.9228 154.962 20.726L153.133 14.326L157.669 10.244C157.814 10.1132 157.918 9.94268 157.967 9.75353C158.017 9.56437 158.01 9.3649 157.947 9.17976C157.884 8.99462 157.768 8.83194 157.614 8.71184C157.46 8.59174 157.274 8.51949 157.079 8.50401L151.378 8.05001L148.911 2.58901C148.832 2.41313 148.705 2.26374 148.543 2.15887C148.381 2.05401 148.193 1.99815 148 1.99805C147.808 1.99794 147.619 2.05359 147.457 2.15828C147.296 2.26296 147.168 2.41221 147.089 2.58801L144.622 8.05001L138.921 8.50301C138.729 8.51819 138.546 8.58822 138.394 8.70475C138.241 8.82127 138.125 8.97934 138.059 9.16004C137.994 9.34075 137.982 9.53645 138.025 9.72372C138.068 9.91099 138.164 10.0819 138.302 10.216L142.516 14.323L141.025 20.775ZM148 5.42901L150.042 9.95001L150.63 9.99701H150.631L154.603 10.312L151.332 13.256L151.331 13.258L150.868 13.674L151.039 14.271V14.274L152.292 18.659L148 15.798V5.42901Z" fill="#FFF500"/>
</svg>
