<svg width="86" height="86" viewBox="0 0 86 86" fill="none" xmlns="http://www.w3.org/2000/svg">
<rect width="86" height="86" rx="43" fill="#00FFA3" fill-opacity="0.2"/>
<path d="M43 22.1667V63.8334" stroke="#0EFEA8" stroke-width="4" stroke-linecap="round" stroke-linejoin="round"/>
<path d="M53.4167 28.4167H37.7917C35.8578 28.4167 34.0031 29.185 32.6357 30.5524C31.2682 31.9199 30.5 33.7745 30.5 35.7084C30.5 37.6423 31.2682 39.4969 32.6357 40.8644C34.0031 42.2319 35.8578 43.0001 37.7917 43.0001H48.2083C50.1422 43.0001 51.9969 43.7683 53.3643 45.1358C54.7318 46.5032 55.5 48.3579 55.5 50.2917C55.5 52.2256 54.7318 54.0803 53.3643 55.4477C51.9969 56.8152 50.1422 57.5834 48.2083 57.5834H30.5" stroke="#0EFEA8" stroke-width="4" stroke-linecap="round" stroke-linejoin="round"/>
<rect x="18" y="18" width="50" height="50" stroke="black"/>
</svg>
