<svg width="86" height="86" viewBox="0 0 86 86" fill="none" xmlns="http://www.w3.org/2000/svg">
<rect width="86" height="86" rx="43" fill="#F866BE" fill-opacity="0.2"/>
<path d="M49.25 61.75V53.4167C49.25 52.3116 49.689 51.2518 50.4704 50.4704C51.2518 49.689 52.3116 49.25 53.4167 49.25H61.75" stroke="#8B336C" stroke-width="4" stroke-linecap="round" stroke-linejoin="round"/>
<path d="M32.5833 26.3333V30.4999C33.0328 31.778 33.8853 32.8754 35.0125 33.6269C36.1398 34.3784 37.4807 34.7433 38.8333 34.6666V34.6666C39.9384 34.6666 40.9982 35.1056 41.7796 35.887C42.561 36.6684 43 37.7282 43 38.8333C43 39.9383 43.439 40.9981 44.2204 41.7795C45.0018 42.5609 46.0616 42.9999 47.1667 42.9999C48.2717 42.9999 49.3315 42.5609 50.1129 41.7795C50.8943 40.9981 51.3333 39.9383 51.3333 38.8333C51.3333 37.7282 51.7723 36.6684 52.5537 35.887C53.3351 35.1056 54.3949 34.6666 55.5 34.6666H61.75" stroke="#8B336C" stroke-width="4" stroke-linecap="round" stroke-linejoin="round"/>
<path d="M24.25 40.9167H28.4167C29.5217 40.9167 30.5815 41.3557 31.3629 42.1371C32.1443 42.9185 32.5833 43.9783 32.5833 45.0834V47.1667C32.5833 48.2718 33.0223 49.3316 33.8037 50.113C34.5851 50.8944 35.6449 51.3334 36.75 51.3334C37.8551 51.3334 38.9149 51.7724 39.6963 52.5538C40.4777 53.3352 40.9167 54.395 40.9167 55.5001V63.8334" stroke="#8B336C" stroke-width="4" stroke-linecap="round" stroke-linejoin="round"/>
<path d="M43 63.8334C54.5059 63.8334 63.8333 54.506 63.8333 43.0001C63.8333 31.4941 54.5059 22.1667 43 22.1667C31.4941 22.1667 22.1667 31.4941 22.1667 43.0001C22.1667 54.506 31.4941 63.8334 43 63.8334Z" stroke="#8B336C" stroke-width="4" stroke-linecap="round" stroke-linejoin="round"/>
<rect x="18" y="18" width="50" height="50" stroke="black"/>
</svg>
